# xmcd
#
# Track frame offsets:
#	150
#	15045
#	33535
#	52331
#	74791
#	88642
#	102771
#	124813
#	149726
#	167590
#	182875
#	198926
#	218376
#	235501
#	253029
#	270808
#	285842
#	305210
#
# Disc length: 4349 seconds
#
# Revision: 1
# Processed by: cddbd v1.4PL0 Copyright (c) Steve Scherf et al.
# Submitted via: audiograbber 1.80
#
DISCID=fc10fb12
DTITLE=Kaiti Garbi - Apla ta Pragmata
DYEAR=1900
DGENRE=
TTITLE0=APLA TA PRAGMATA
TTITLE1=OTAN SE HREIAZWMAI
TTITLE2=KRAGION
TTITLE3=BIASTIKA
TTITLE4=ESY THA HASEIS
TTITLE5=SAN TON EXTHRO
TTITLE6=PESTO M' ENA FILI
TTITLE7=ADIKO KAI KRIMA
TTITLE8=KANENAS DEN ANHKEI SE KANENA
TTITLE9=AKATALLHLH AGAPH
TTITLE10=THELW APOPSE NA XOREPSW
TTITLE11=AYTO POY ZHSAME
TTITLE12=TO SABBATOKYRIAKO SOY
TTITLE13=POY NA KRYFTW
TTITLE14=XENYHTAW
TTITLE15=BASEI LOGIKIS
TTITLE16=ARGA_ARGA
TTITLE17=YOU AND ME YOU AND I
EXTD=
EXTT0=
EXTT1=
EXTT2=
EXTT3=
EXTT4=
EXTT5=
EXTT6=
EXTT7=
EXTT8=
EXTT9=
EXTT10=
EXTT11=
EXTT12=
EXTT13=
EXTT14=
EXTT15=
EXTT16=
EXTT17=
PLAYORDER=
